<svg xmlns="http://www.w3.org/2000/svg" version="1.1" width="552.107" height="546.027" viewBox="0 0 552.107 546.027" xml:space="preserve"><path vector-effect="non-scaling-stroke" d="M434.853 432.57c10.084-.013 20.137-3.921 27.537-10.75 7.461-6.871 12.238-16.13 13.176-26.664l.155-3.225.004-3.53-.013-6.455-.022-12.908-.056-25.818-.318-103.268-.15-25.822c.004-2.004-.065-4.691-.374-7.095-.31-2.468-.89-4.88-1.617-7.25-1.514-4.725-3.952-9.133-7.082-12.951-6.291-7.676-15.26-12.87-25.276-14.306-2.924-.456-4.287-.383-7.064-.448l-6.455.035-12.908.082-103.278 1.01h-.021l3.233 1.737-33.63-54.18-.009-.008-5.117-7.31-4.592 7.31-33.936 53.978-.008.008 3.543-1.905-91.397-.456-22.85-.111-5.71-.03c-1.935.004-3.694-.074-5.973.068-4.317.228-8.656 1.058-12.685 2.722-8.062 3.23-15.106 9.073-19.535 16.603-2.231 3.74-3.904 7.834-4.829 12.108-.408 2.22-.795 4.739-.817 6.459l-.081 1.428-.018 1.685-.017 2.86-.15 91.392-.073 45.696-.035 22.85-.017 11.425c-.039 3.548-.039 8.218.886 12.509 1.862 8.621 6.57 16.607 13.287 22.308 6.7 5.698 15.295 9.263 24.131 9.628l1.424.077.997.026h.714l2.855.005 5.715.008 11.42.017 22.851.039 91.397.138zm0-12.044l-182.788.275-91.397.142-22.85.034-11.42.017-5.716.01-2.855.003H116.937c-.31-.008.22.013.099.005l-.357-.018-1.427-.068c-6.416-.228-12.638-2.817-17.549-6.94-4.923-4.146-8.35-9.964-9.74-16.22-.661-3.178-.7-6.175-.683-10.23l-.017-11.425-.03-22.85-.073-45.696-.15-91.392-.018-2.86-.004-1.165.064-1.428c.03-2.098.331-3.328.555-4.863.653-3.186 1.875-6.24 3.509-9.047 3.237-5.676 8.51-10.11 14.53-12.604 3.005-1.294 6.26-1.93 9.524-2.141 1.518-.133 3.573-.099 5.448-.116l5.71-.03 22.85-.116 91.397-.456 2.3-.013 1.243-1.888.005-.008 36.562-52.237h-9.709l.009.013 36.872 52.026 1.273 1.797 1.96-.06h.022l103.278 1.01 12.908.082 6.455.039c1.509.039 4.476.09 5.787.443 7.018 1.092 13.954 5.078 18.469 10.819 2.292 2.86 4.059 6.14 5.13 9.632.503 1.75.916 3.526 1.118 5.345.202 1.861.25 3.491.228 5.783l-.147 25.822-.318 103.268-.056 25.818-.025 12.908-.013 6.454-.005 2.933-.167 3.22c-.645 6.627-4.094 13.765-9.4 18.444-5.294 4.824-12.346 7.529-19.5 7.529" stroke-linecap="butt" stroke="none" stroke-width="1" stroke-dashoffset="0" stroke-linejoin="miter" stroke-miterlimit="4" fill="#636363" fill-rule="nonzero" opacity="1"/><path vector-effect="non-scaling-stroke" transform="matrix(2.16 0 0 -1.39 276.05 303.77)" d="M-92.857-53.829c0-21.554 11.287-39.028 25.21-39.028H67.647c13.924 0 25.211 17.474 25.211 39.028V53.83c0 21.554-11.287 39.028-25.21 39.028H-67.647c-13.924 0-25.211-17.474-25.211-39.028z" stroke-linecap="butt" stroke="#58d8b8" stroke-width="0" stroke-dashoffset="0" stroke-linejoin="miter" stroke-miterlimit="4" fill="#636363" fill-rule="nonzero" opacity="1"/><path vector-effect="non-scaling-stroke" d="M318.05 183.03l42 66.8h-168l42-66.8 42-66.8 42 66.8z" stroke-linecap="butt" stroke="none" stroke-width="1" stroke-dashoffset="0" stroke-linejoin="miter" stroke-miterlimit="4" fill="#636363" fill-rule="nonzero" opacity="1"/><text xml:space="preserve" font-family="Roboto" font-size="70" font-style="normal" font-weight="600" letter-spacing=".14" line-height="1" stroke="none" stroke-width="1" stroke-linecap="butt" stroke-dashoffset="0" stroke-linejoin="miter" stroke-miterlimit="4" fill="#fff" fill-rule="nonzero" opacity="1" white-space="pre" transform="translate(276.05 303.77)"><tspan x="-110.66" y="16.81">C</tspan><tspan x="-64.72" y="16.81">o</tspan><tspan x="-25" y="16.81">p</tspan><tspan x="14.55" y="16.81">i</tspan><tspan x="33.24" y="16.81">e</tspan><tspan x="71.22" y="16.81">d</tspan></text></svg>